<?xml version="1.0" standalone="no"?><!DOCTYPE svg PUBLIC "-//W3C//DTD SVG 1.1//EN" "http://www.w3.org/Graphics/SVG/1.1/DTD/svg11.dtd"><svg t="1780991512752" class="icon" viewBox="0 0 1024 1024" version="1.1" xmlns="http://www.w3.org/2000/svg" p-id="6052" xmlns:xlink="http://www.w3.org/1999/xlink" width="200" height="200"><path d="M832 64 192 64C121.6 64 64 121.6 64 192l0 512c0 70.4 57.6 128 128 128l128 0 132.096 120.448C459.072 957.632 466.88 960 474.432 960 493.824 960 512 944.704 512 922.496L512 832l320 0c70.4 0 128-57.6 128-128L960 192C960 121.6 902.4 64 832 64zM736 576l-448 0C270.336 576 256 561.664 256 544S270.336 512 288 512l448 0C753.664 512 768 526.336 768 544S753.664 576 736 576zM736 384l-448 0C270.336 384 256 369.664 256 352S270.336 320 288 320l448 0C753.664 320 768 334.336 768 352S753.664 384 736 384z" p-id="6053" fill="#707070"></path></svg>