<?xml version="1.0" standalone="no"?><!DOCTYPE svg PUBLIC "-//W3C//DTD SVG 1.1//EN" "http://www.w3.org/Graphics/SVG/1.1/DTD/svg11.dtd"><svg t="1780708094889" class="icon" viewBox="0 0 1501 1024" version="1.1" xmlns="http://www.w3.org/2000/svg" p-id="3131" xmlns:xlink="http://www.w3.org/1999/xlink" width="293.1640625" height="200"><path d="M750.933333 28.433067c197.154133 0 381.508267 79.394133 537.019734 209.578666 119.227733 99.771733 212.616533 225.621333 212.616533 286.071467 0 60.416-93.525333 186.299733-212.821333 286.1056-155.613867 130.1504-339.899733 209.578667-536.814934 209.578667-197.290667 0-382.122667-77.7216-536.541866-205.141334C93.2864 714.752 1.297067 589.482667 1.297067 524.117333S93.184 333.482667 214.186667 233.540267C368.5376 106.154667 553.3696 28.433067 750.933333 28.433067z m0 102.4c-171.6224 0-334.336 68.4032-471.552 181.691733-99.157333 81.8176-175.684267 186.1632-175.684266 211.5584 0 25.361067 76.629333 129.706667 175.854933 211.592533 137.3184 113.2544 300.032 181.6576 471.381333 181.6576 170.496 0 332.5952-69.8368 471.108267-185.685333 97.3824-81.476267 176.128-187.426133 176.128-207.530667 0-20.206933-78.609067-126.122667-175.957333-207.598933C1083.835733 200.704 921.668267 130.833067 750.933333 130.833067z m0 139.264a253.952 253.952 0 1 1 0 507.972266 253.952 253.952 0 0 1 0-507.938133z m0 102.4a151.552 151.552 0 1 0 0 303.172266 151.552 151.552 0 0 0 0-303.138133z" fill="#2c2c2c" p-id="3132"></path></svg>