<?xml version="1.0" standalone="no"?><!DOCTYPE svg PUBLIC "-//W3C//DTD SVG 1.1//EN" "http://www.w3.org/Graphics/SVG/1.1/DTD/svg11.dtd"><svg t="1781748580627" class="icon" viewBox="0 0 1024 1024" version="1.1" xmlns="http://www.w3.org/2000/svg" p-id="12826" xmlns:xlink="http://www.w3.org/1999/xlink" width="200" height="200"><path d="M1022.775296 394.878976a27.170816 27.170816 0 0 0-21.745664-18.434048L679.571456 329.56416 535.98208 38.424576c-4.395008-9.074688-13.754368-14.761984-23.980032-14.761984-10.297344 0-19.513344 5.543936-24.195072 14.905344L344.215552 329.70752 23.119872 376.44288c-10.082304 1.296384-18.507776 8.065024-21.747712 17.93024-3.239936 9.721856-0.647168 20.883456 6.84032 27.867136l232.415232 226.656256-54.8352 319.801344c-1.800192 10.366976 2.23232 20.379648 10.657792 26.427392 4.53632 3.381248 10.225664 5.183488 15.661056 5.183488 4.427776 0 8.57088-1.007616 12.709888-3.026944l287.107072-151.08096 287.46752 151.005184c9.146368 4.825088 19.87584 3.964928 28.372992-2.08896 8.353792-6.191104 12.388352-16.345088 10.58816-26.427392l-54.802432-319.797248 232.310784-226.801664c7.34208-6.977536 9.934848-17.48992 6.909952-27.211776z" fill="#707070" p-id="12827"></path></svg>