<?xml version="1.0" standalone="no"?><!DOCTYPE svg PUBLIC "-//W3C//DTD SVG 1.1//EN" "http://www.w3.org/Graphics/SVG/1.1/DTD/svg11.dtd"><svg t="1780668056815" class="icon" viewBox="0 0 1152 1024" version="1.1" xmlns="http://www.w3.org/2000/svg" p-id="8765" xmlns:xlink="http://www.w3.org/1999/xlink" width="225" height="200"><path d="M621.504 669.12L488.64 540.608l1.536-1.472a891.968 891.968 0 0 0 194.304-334.4h153.408V102.4H471.36V0H366.592v102.4H0v101.888h584.96A800.768 800.768 0 0 1 418.944 478.72a800.704 800.704 0 0 1-120.96-171.52H193.28a897.344 897.344 0 0 0 156.032 233.408l-266.624 257.088 74.368 72.64 261.888-256 162.816 159.232 39.744-104.448zM916.416 409.6h-104.832L576 1024h104.704l58.624-153.6h248.768l59.2 153.6H1152l-235.584-614.4v-0.064z m-137.28 358.4L864 546.24 948.864 768h-169.728z" p-id="8766" fill="#515151"></path></svg>