<svg width="408" height="419" version="1.1" xmlns="http://www.w3.org/2000/svg" desc="Created with imagetracer.js version 1.2.6" ><path fill="rgb(1,1,1)" stroke="rgb(1,1,1)" stroke-width="1" opacity="0.00392156862745098" d="M 0 0 L 408 0 L 408 402.5 L 406.5 402 L 391.5 401 L 389.5 401 L 356.5 401 L 355.5 402 L 336.5 402 L 334.5 403 L 332.5 403 L 310.5 403 L 309.5 404 L 223.5 404 L 222.5 405 L 211.5 405 L 210.5 406 L 209.5 405 L 201 405 L 202 396.5 L 199 389.5 Q 201.8 387.7 200 381.5 L 205 367.5 L 205 363.5 Q 202.8 362.3 205.5 361 L 209 358.5 L 211 353.5 L 212 344.5 L 208 328 Q 210.7 329.1 210 326.5 L 211 325.5 L 211 312.5 L 209 306.5 Q 221.1 300.1 218 278.5 L 213 267.5 L 213 264.5 L 209.5 260 L 206 261.5 L 211 278.5 L 212 289.5 Q 210.5 296.4 205.5 300 L 199.5 303 L 195.5 303 L 188.5 301 L 173 289 L 173 285.5 L 177 278.5 L 185.5 269 Q 193.6 271.9 198.5 278 L 205 280 L 205 275.5 L 199.5 269 L 190.5 264 L 182.5 263 L 181 261.5 L 180 259.5 Q 180.8 257.3 184.5 258 L 188.5 259 L 189.5 258 L 197.5 258 L 207.5 256 L 220 250 Q 218.9 247.3 221.5 248 L 228 240.5 L 234 227.5 L 237.5 224 Q 239.8 224.8 239 222.5 Q 240.3 219.8 241.5 222 Q 258.6 228.9 270 241.5 Q 290.4 264.9 295 303 L 312.5 303 L 315.5 304 Q 326.8 308.2 334 316.5 L 341 325.5 L 345 334.5 L 346 350.5 L 345 355 L 348.5 355 L 359 344.5 L 381 310.5 L 391 289.5 Q 391.5 282 395 277.5 L 395 273.5 L 399 259.5 L 400 243.5 L 401 242.5 L 401 215.5 L 400 214.5 L 399 195.5 L 392 172.5 L 384 153.5 L 366 121.5 Q 356.9 107.6 344.5 97 L 340 93.5 L 353 75.5 L 354 69 L 351.5 68 L 331.5 81 L 329.5 81 L 313.5 65 Q 306.5 63 302.5 58 L 280.5 46 L 261.5 38 L 220.5 26 L 205.5 25 L 204.5 24 L 193.5 24 L 192.5 23 L 181.5 23 L 180.5 22 L 157.5 22 Q 155.7 19.3 149.5 21 L 148.5 22 L 129.5 23 L 123.5 25 L 107.5 27 L 96.5 31 L 91.5 31 L 59.5 44 L 37 57.5 L 37.5 59 L 44.5 59 L 59.5 63 L 77.5 71 L 97 85.5 L 104 93.5 L 104 96 Q 94.5 96.2 88.5 101 L 62 121 L 56 129.5 L 57.5 129 L 86.5 108 L 97.5 102 L 108 100 Q 109.5 103.7 106.5 103 L 95.5 105 L 87.5 109 L 75.5 121 L 73.5 120 L 61 131.5 Q 53.4 139.9 53 155.5 L 56 153.5 L 56 149.5 L 60 139.5 L 72.5 123 L 72 124.5 L 63 138.5 L 58 153.5 L 55.5 157 L 38 164 Q 36.7 167.3 41.5 166 L 56 161 L 55 167.5 L 56 170.5 L 56 172.5 Q 54.5 177.8 59 176 L 59 181.5 Q 56.3 183.2 58 189.5 L 56 192.5 L 56 199.5 Q 57.6 208.4 64.5 212 L 72.5 216 Q 78.5 214.5 80 217.5 L 80 221.5 L 83 227.5 L 94 241 L 90.5 242 L 83 248.5 L 74 262.5 L 72 272.5 L 73 273.5 L 74 285.5 L 83.5 298 L 97.5 304 L 122 305 Q 120.5 314.1 113.5 319 L 78 313 Q 77 307.9 81 306.5 L 81 300 L 77.5 298 L 72.5 298 Q 65.9 303.9 68 318.5 Q 70.3 319.8 69 324.5 L 61 335.5 L 58 343.5 L 61.5 350 L 64 351.5 L 64 355.5 Q 59.5 364 58 375.5 L 54.5 380 Q 51.5 379.1 53 383.5 L 52 387.5 L 49.5 390 L 45 393.5 L 44 399.5 L 45 403 L 24.5 403 L 19.5 402 L 15.5 403 L 14.5 402 L 1.5 402 L 0 402.5 L 0 0 Z M 34 329 L 30 331 L 28 336 L 27 347 L 30 348 L 32 338 L 35 332 Q 36 328 34 329 Z M 22 340 L 18 344 Q 17 352 22 354 L 24 354 L 24 348 L 24 346 L 23 342 Q 24 339 22 340 Z M 364 374 L 354 379 Q 351 381 354 382 Q 356 379 363 380 L 365 378 L 364 374 Z M 377 384 L 371 388 L 369 391 Q 377 392 379 387 Q 380 383 377 384 Z " /><path fill="rgb(1,1,1)" stroke="rgb(1,1,1)" stroke-width="1" opacity="0.00392156862745098" d="M 138.5 29 L 197.5 30 L 198.5 31 L 207.5 31 L 233.5 36 L 246.5 41 L 262.5 45 L 279.5 52 L 311.5 70 L 323.5 81 L 332.5 85 L 342.5 79 L 343 80.5 L 338 91 L 334 91 L 334 92.5 L 354 114.5 L 371 142.5 L 383 167.5 L 383 170.5 L 392 194.5 L 395 211.5 L 394 214.5 L 394 216.5 L 395 218.5 L 394 220.5 L 395 221.5 L 395 238.5 L 394 239.5 L 394 248.5 L 392 258.5 L 382 292.5 L 376 305.5 L 353.5 340 L 351 329.5 L 343 315 Q 340.3 316.1 341 313.5 L 338 312 Q 339.1 309.3 336.5 310 L 331.5 305 L 317.5 298 L 302.5 297 L 299.5 298 L 298 296.5 L 298 282.5 L 293 264.5 L 282 244.5 L 267.5 229 L 247.5 217 Q 241 216.5 237.5 213 L 226.5 211 L 222.5 209 Q 214.3 210.1 211 208 L 210 204.5 L 209 188.5 L 204 174.5 Q 195.5 157.5 181.5 146 L 172.5 138 L 155.5 127 L 132.5 118 L 121.5 117 L 120 115.5 L 117 102.5 L 109 87.5 L 105.5 84 L 103 82.5 L 99.5 78 L 89.5 70 L 75.5 62 L 58.5 56 L 49 54.5 L 66.5 47 L 72.5 46 L 97.5 37 L 114.5 34 L 118.5 32 L 132.5 31 L 138.5 29 Z M 213 80 L 212 81 L 186 82 L 177 85 L 173 85 Q 147 93 129 107 L 125 113 L 126 114 L 140 104 L 168 91 L 192 85 L 225 83 L 235 81 L 213 80 Z M 259 159 L 256 162 Q 253 161 254 164 L 239 177 Q 227 186 219 200 L 221 199 Q 224 200 223 198 L 239 183 L 260 160 L 259 159 Z M 355 199 L 353 218 L 350 226 L 350 230 L 343 246 L 336 258 L 318 280 L 317 283 L 320 282 Q 319 279 322 280 L 345 252 L 354 231 L 358 211 Q 360 204 357 203 Q 358 198 355 199 Z " /><path fill="rgb(1,1,1)" stroke="rgb(1,1,1)" stroke-width="1" opacity="0.00392156862745098" d="M 81.5 125 L 82 126.5 L 78 129.5 L 81.5 125 Z " /><path fill="rgb(1,1,1)" stroke="rgb(1,1,1)" stroke-width="1" opacity="0.00392156862745098" d="M 76 131 L 78 131.5 L 69.5 145 L 69 143.5 Q 74.2 138.5 76 131 Z " /><path fill="rgb(1,1,1)" stroke="rgb(1,1,1)" stroke-width="1" opacity="0.00392156862745098" d="M 165 143 L 168 144.5 L 166.5 147 L 162 149 L 165 143 Z " /><path fill="rgb(1,1,1)" stroke="rgb(1,1,1)" stroke-width="1" opacity="0.00392156862745098" d="M 68.5 146 L 69 147.5 L 66.5 152 L 66 150.5 L 68.5 146 Z " /><path fill="rgb(1,1,1)" stroke="rgb(1,1,1)" stroke-width="1" opacity="0.00392156862745098" d="M 171.5 149 L 173 149.5 L 168.5 152 L 168.5 151 L 171.5 149 Z " /><path fill="rgb(1,1,1)" stroke="rgb(1,1,1)" stroke-width="1" opacity="0.00392156862745098" d="M 62 159 L 65 160.5 L 59.5 172 L 59 169.5 L 62 159 Z " /><path fill="rgb(1,1,1)" stroke="rgb(1,1,1)" stroke-width="1" opacity="0.00392156862745098" d="M 163.5 160 L 161.5 163 L 151.5 166 L 151.5 165 L 163.5 160 Z " /><path fill="rgb(1,1,1)" stroke="rgb(1,1,1)" stroke-width="1" opacity="0.00392156862745098" d="M 172 160 L 174 160.5 L 170.5 165 Q 160.4 175.4 144 179.5 Q 145.3 182.3 150.5 181 L 168.5 174 L 175 168.5 L 177 165.5 L 178 165.5 Q 179.1 168.8 176.5 168 L 171 176.5 L 173.5 175 L 183 166.5 L 184.5 163 L 185 175.5 L 179 188.5 L 180.5 189 L 187 178.5 Q 187.3 171.8 190.5 168 L 193 175.5 L 193 183.5 L 194.5 185 Q 197.5 185.5 196 178.5 L 197 178.5 L 200 184.5 Q 199.2 193.1 201 198 Q 204.3 199.3 203 194.5 L 204 194.5 L 206 199.5 L 207 210.5 L 177.5 246 Q 176 243.5 170.5 245 L 168 246.5 L 175 249.5 L 166 254 Q 167.5 257.7 164.5 257 L 162 260.5 L 169.5 267 L 172 267 L 172.5 260 L 175 261 L 177 267.5 L 169 275.5 L 168 279 L 160 272.5 L 157.5 269 L 155 270.5 Q 154.1 277.1 149.5 280 L 137 279 L 135.5 276 Q 130.1 270.7 121 270 L 122 264.5 L 119.5 263 Q 116 264.3 117 269 L 110.5 270 Q 109.3 267.8 104.5 269 L 103 271.5 L 106.5 274 L 122.5 275 L 130 278.5 L 128 288.5 L 126 290.5 L 123 300 Q 119.4 302.2 110.5 301 L 92.5 297 L 83 289.5 Q 79.2 281.8 79 270.5 L 80 265.5 L 89 250 Q 91.7 251.1 91 248.5 L 96 242 L 118.5 252 L 141.5 255 L 143 252 L 134.5 252 L 118.5 247 L 101 238 Q 102.1 235.3 99.5 236 L 92 229.5 L 86 218.5 L 84 203.5 L 81.5 201 Q 79.1 203.1 80 208.5 L 78.5 210 L 73.5 210 L 64 203.5 Q 60.8 200.2 62 192.5 L 67 185 L 74.5 184 L 83 187 L 84.5 183 L 87.5 181 Q 92.2 182.3 93.5 180 L 93 181.5 L 88 191 L 92 188.5 L 97 181 L 99.5 182 L 112.5 174 L 121.5 173 L 122.5 174 L 139.5 174 L 140.5 173 L 154.5 172 L 165.5 167 L 172 162 L 172 160 Z M 136 189 L 136 191 Q 141 197 150 201 Q 157 201 160 197 Q 161 192 159 191 L 152 195 L 140 189 L 136 189 Z M 166 192 L 162 198 L 162 200 Q 167 201 168 197 L 167 194 Q 168 191 166 192 Z M 69 193 Q 66 194 67 198 L 74 199 Q 69 198 67 202 Q 68 205 75 204 L 78 201 L 76 199 L 77 194 Q 75 192 69 193 Z M 138 209 Q 134 211 136 218 L 140 219 L 142 217 L 143 212 Q 142 208 138 209 Z M 181 218 L 180 219 L 178 220 L 178 226 L 182 227 Q 185 226 184 221 L 181 218 Z M 162 263 L 159 268 L 164 271 Q 169 273 167 267 L 162 263 Z " /><path fill="rgb(1,1,1)" stroke="rgb(1,1,1)" stroke-width="1" opacity="0.00392156862745098" d="M 147.5 165 Q 151.3 164 150 167 L 127.5 171 L 124 169.5 L 126.5 168 L 144.5 167 L 147.5 165 Z " /><path fill="rgb(1,1,1)" stroke="rgb(1,1,1)" stroke-width="1" opacity="0.00392156862745098" d="M 83 175 L 85 175.5 L 81.5 182 L 79 180.5 L 81 177 Q 84 178 83 175 Z " /><path fill="rgb(1,1,1)" stroke="rgb(1,1,1)" stroke-width="1" opacity="0.00392156862745098" d="M 64.5 178 L 66 180.5 L 63 182 L 64.5 178 Z " /><path fill="rgb(1,1,1)" stroke="rgb(1,1,1)" stroke-width="1" opacity="0.00392156862745098" d="M 213.5 214 L 230.5 217 L 233 219.5 Q 227.8 236.3 215.5 246 L 200.5 253 L 191.5 255 L 181 255 L 213.5 214 Z " /><path fill="rgb(1,1,1)" stroke="rgb(1,1,1)" stroke-width="1" opacity="0.00392156862745098" d="M 158.5 280 L 165 284.5 L 164 289.5 L 180 302.5 Q 179.3 304.8 181.5 304 L 193.5 310 L 200.5 310 L 206 309 L 205 324.5 L 202.5 327 L 185.5 326 L 173.5 323 L 137.5 322 L 130 320 L 134 312.5 L 133 309.5 L 139 305.5 L 139.5 303 L 143 304 L 144.5 300 Q 146.3 302.7 148 298.5 Q 147.3 296.3 149.5 297 L 151 297.5 L 153 287.5 L 158.5 280 Z " /><path fill="rgb(1,1,1)" stroke="rgb(1,1,1)" stroke-width="1" opacity="0.00392156862745098" d="M 138.5 285 Q 144.1 284.9 146 288.5 L 144.5 289 L 141.5 288 Q 138.5 288.5 139 292.5 L 141 295.5 L 138 296.5 L 137.5 300 L 134 299 L 136 288.5 L 138.5 285 Z " /><path fill="rgb(1,1,1)" stroke="rgb(1,1,1)" stroke-width="1" opacity="0.00392156862745098" d="M 136 349 Q 139.3 347.7 138 352.5 Q 139.3 358.3 143.5 361 L 160 365 L 162 371.5 L 162 377.5 Q 159.5 379 161 384.5 L 159 386.5 L 159 392.5 Q 155.8 396 157 403 L 140.5 404 Q 139.2 401.8 134.5 403 L 133.5 404 L 124.5 404 L 123.5 403 L 111.5 403 L 109.5 403 L 90.5 403 L 90 399.5 L 93 390.5 L 93 384.5 L 102 370.5 L 105 363 L 124.5 363 L 132 357.5 L 136 349 Z " /><path fill="rgb(1,1,1)" stroke="rgb(1,1,1)" stroke-width="1" opacity="0.00392156862745098" d="M 68.5 354 L 73.5 357 L 99 362 L 99 364.5 Q 91.5 373 88 384 L 72.5 384 L 62 381 L 61 374.5 L 63 374 L 67 359.5 L 67 355.5 L 68.5 354 Z " /><path fill="rgb(1,1,1)" stroke="rgb(1,1,1)" stroke-width="1" opacity="0.00392156862745098" d="M 194.5 363 Q 201.8 360.4 200 366.5 L 194 384 L 184.5 387 L 168.5 387 Q 166.3 386.3 167 382.5 L 168 381.5 L 168 373.5 L 166 365 L 181.5 366 L 194.5 363 Z " /><path fill="rgb(1,1,1)" stroke="rgb(1,1,1)" stroke-width="1" opacity="0.00392156862745098" d="M 57 385 Q 66.8 390.5 83.5 390 L 87 389 L 86 396.5 L 87 398.5 L 83.5 403 Q 72.8 404.8 66.5 402 L 65.5 403 L 56.5 403 L 51 399.5 Q 50.3 393.8 54.5 393 Q 56.8 393.8 56 391.5 L 57 385 Z M 65 390 Q 61 391 62 395 L 65 396 Q 73 398 74 393 Q 71 389 65 390 Z " /><path fill="rgb(1,1,1)" stroke="rgb(1,1,1)" stroke-width="1" opacity="0.00392156862745098" d="M 188.5 390 Q 195.3 387.8 193 394.5 Q 197 395.5 196 401.5 L 193.5 404 L 168.5 404 L 162 403 L 164 392.5 L 165.5 391 L 176.5 392 L 178.5 391 L 182.5 392 L 188.5 390 Z " /><path fill="rgb(1,1,1)" stroke="rgb(1,1,1)" stroke-width="1" opacity="0.00392156862745098" d="M 354.5 410 L 408 411 L 408 418.5 L 407.5 419 L 0 419 L 0 411 L 2.5 411 L 3.5 412 L 69.5 412 L 70.5 411 L 79.5 411 L 80.5 412 L 124.5 412 L 128.5 413 L 129.5 412 L 158.5 412 L 159.5 413 L 188.5 413 L 189.5 414 L 222.5 414 L 223.5 413 L 288.5 413 L 290.5 413 L 324.5 412 L 325.5 411 L 353.5 411 L 354.5 410 Z " /><path fill="rgb(24,24,26)" stroke="rgb(24,24,26)" stroke-width="1" opacity="0.9215686274509803" d="M 149.5 21 Q 155.7 19.3 157.5 22 L 180.5 22 L 181.5 23 L 192.5 23 L 193.5 24 L 204.5 24 L 205.5 25 L 220.5 26 L 258.5 37 L 280.5 46 L 302.5 58 Q 306.5 63 313.5 65 L 329.5 81 L 331.5 81 L 351.5 68 L 354 69 L 353 75.5 L 340 93.5 L 357 109.5 L 376 137.5 L 394 178.5 L 400 200.5 L 401 242.5 L 400 243.5 L 399 259.5 L 395 273.5 L 395 277.5 L 387 298.5 L 366 334.5 L 359 344.5 L 348.5 355 Q 343.3 356.8 345 351.5 L 346 350.5 L 346 338.5 L 341 325.5 L 332.5 315 Q 324.8 306.7 312.5 303 L 295 303 Q 290.3 263.5 268.5 240 Q 256.7 228.3 240.5 221 L 239 224 L 234 227.5 Q 230.2 240.2 221.5 248 L 218.5 250 L 207.5 256 L 185.5 259 L 181.5 258 Q 178.8 259.3 181 260.5 L 182.5 263 L 190.5 264 L 201 270.5 L 205 275.5 L 205 280 L 198.5 278 Q 193.6 271.9 185.5 269 L 177 278.5 L 173 285.5 L 173 289 L 188.5 301 L 199.5 303 L 209 296.5 Q 212.9 292.4 212 283.5 L 206 261.5 L 209.5 260 L 213 264.5 L 213 267.5 L 218 278.5 L 218 293.5 L 215 300.5 L 209 306.5 L 209 308.5 L 211 312.5 L 211 325.5 L 210 328 Q 207.3 326.9 208 329.5 L 210 333.5 L 212 346.5 L 210 356.5 L 206.5 361 L 204 362.5 L 205 367.5 L 200 381.5 L 199 391.5 Q 202.9 394.1 202 401.5 L 201 405 L 209.5 405 L 210.5 406 L 211.5 405 L 222.5 405 L 223.5 404 L 309.5 404 L 310.5 403 L 332.5 403 L 333.5 402 L 335.5 403 L 336.5 402 L 355.5 402 L 356.5 401 L 389.5 401 L 391.5 401 L 406.5 402 L 408 403.5 L 408 410.5 L 407.5 411 L 382.5 411 L 381.5 410 L 354.5 410 L 353.5 411 L 302.5 412 L 301.5 413 L 290.5 413 L 289.5 414 L 288.5 413 L 223.5 413 L 222.5 414 L 189.5 414 L 188.5 413 L 129.5 412 L 125.5 413 L 124.5 412 L 80.5 412 L 79.5 411 L 70.5 411 L 69.5 412 L 3.5 412 L 0 411 L 0 403.5 L 1.5 402 Q 11.8 400.7 18.5 403 L 23.5 402 L 24.5 403 L 45 403 L 44 395.5 L 48.5 390 L 52 387.5 L 53 380 L 57 377.5 L 64 355.5 L 64 351.5 L 60 348.5 L 58 342.5 L 61 335.5 L 69 324.5 L 69 319.5 L 68 318.5 L 68 306.5 L 72.5 298 L 77.5 298 L 81 300 L 81 306.5 Q 77 307.9 78 313 L 113.5 319 Q 120.5 314.1 122 305 L 104.5 305 L 93.5 303 Q 84.3 300.2 79 293.5 L 74 285.5 L 72 271.5 L 75 260.5 L 86.5 245 L 94 241 L 83 227.5 L 78.5 216 Q 63.9 215.1 58 205.5 Q 55.1 200.9 56 192.5 L 58 189.5 L 59 176 Q 54.5 177.8 56 172.5 L 56 170.5 L 55 167.5 L 56 161 L 38 166 Q 36.9 163.3 39.5 164 L 57 155.5 L 60 145.5 L 62 143.5 L 62 140.5 L 72 124.5 L 68 127.5 L 60 139.5 L 56 149.5 L 56 153.5 L 53.5 156 L 53 149.5 L 57 137.5 L 71.5 121 L 74.5 120 L 75.5 121 L 87.5 109 L 95.5 105 L 108 103 Q 109.7 98.9 105.5 100 L 97.5 102 L 81.5 111 L 56.5 130 L 56 128.5 L 62 121 L 88.5 101 Q 94.5 96.2 104 96 L 104 93.5 L 95.5 84 L 71.5 68 L 50.5 60 L 37 59 L 38.5 56 L 59.5 44 L 91.5 31 L 96.5 31 L 107.5 27 L 112.5 27 L 129.5 23 L 148.5 22 L 149.5 21 Z M 139 29 L 133 31 L 119 32 L 115 34 L 98 37 L 73 46 L 67 47 L 49 55 L 59 56 L 76 62 L 90 70 L 100 78 L 103 83 L 106 84 L 109 88 L 117 103 L 120 116 L 122 117 L 133 118 L 156 127 L 173 138 L 182 146 Q 195 158 204 175 L 209 189 L 210 205 L 211 208 Q 214 210 223 209 L 227 211 L 238 213 Q 241 216 248 217 L 268 229 L 282 245 L 293 265 L 298 283 L 298 297 L 300 298 L 303 297 L 318 298 L 332 305 L 337 310 Q 339 309 338 312 L 341 314 Q 340 316 343 315 L 351 330 L 354 340 L 376 306 L 382 293 L 392 259 L 394 249 L 394 240 L 395 239 L 395 222 L 394 221 L 395 219 L 394 217 L 394 215 L 395 212 L 392 195 L 383 171 L 383 168 L 371 143 L 354 115 L 334 93 L 334 91 L 338 91 L 343 81 L 343 79 L 333 85 L 324 81 L 312 70 L 280 52 L 263 45 L 247 41 L 234 36 L 208 31 L 199 31 L 198 30 L 139 29 Z M 73 139 L 71 142 L 73 141 L 73 139 Z M 71 142 L 69 145 L 71 144 L 71 142 Z M 165 143 L 162 149 L 167 147 L 168 145 L 165 143 Z M 68 148 L 66 152 L 68 151 L 68 148 Z M 62 159 L 59 170 L 60 172 L 65 161 L 62 159 Z M 162 161 L 152 165 L 152 166 L 163 162 L 162 161 Z M 171 162 L 166 167 L 155 172 L 141 173 L 140 174 L 123 174 L 122 173 L 113 174 L 100 182 L 97 181 L 92 189 L 88 191 L 93 181 Q 87 180 85 183 L 83 187 L 75 184 L 67 185 L 62 193 Q 61 200 64 204 L 74 210 L 79 210 L 80 209 Q 79 203 82 201 L 84 204 L 86 219 L 92 230 L 100 236 Q 102 235 101 238 L 119 247 L 135 252 L 143 252 L 142 255 L 119 252 L 96 242 L 91 249 Q 92 251 89 250 L 80 266 L 79 271 Q 79 282 83 290 L 93 297 L 111 301 Q 119 302 123 300 L 126 291 L 128 289 L 130 279 L 123 275 L 107 274 L 103 272 L 105 269 Q 109 268 111 270 L 117 269 Q 116 264 120 263 L 122 265 L 121 270 Q 130 271 136 276 L 137 279 L 150 280 Q 154 277 155 271 L 158 269 L 160 273 L 168 279 L 169 276 L 177 268 L 175 261 L 173 260 L 172 267 L 170 267 L 162 261 L 165 257 Q 168 258 166 254 L 175 250 L 168 247 L 171 245 Q 176 244 178 246 L 207 211 L 206 200 L 204 195 L 203 195 Q 204 199 201 198 Q 199 193 200 185 L 197 179 L 196 179 Q 197 185 195 185 L 193 184 L 193 176 L 191 168 Q 187 172 187 179 L 181 189 L 179 189 L 185 176 L 185 163 L 183 167 L 174 175 L 171 177 L 175 171 L 175 169 L 163 177 L 151 181 Q 145 182 144 180 L 159 174 L 172 164 Q 173 161 171 162 Z M 148 165 L 145 167 L 127 168 L 124 170 L 128 171 L 150 167 Q 151 164 148 165 Z M 178 165 Q 178 168 175 167 L 176 169 L 178 168 L 178 165 Z M 83 175 Q 84 178 81 177 L 79 181 L 82 182 L 85 176 L 83 175 Z M 65 178 L 63 182 L 66 181 L 65 178 Z M 214 214 L 181 255 L 192 255 L 201 253 L 216 246 Q 228 236 233 220 L 231 217 L 214 214 Z M 159 280 L 153 288 L 151 298 L 150 297 Q 147 296 148 299 Q 146 303 145 300 L 143 304 L 140 303 L 139 306 L 133 310 L 134 313 L 130 320 L 138 322 L 174 323 L 186 326 L 203 327 L 205 325 L 206 309 L 201 310 L 194 310 L 182 304 Q 179 305 180 303 L 164 290 L 165 285 L 159 280 Z M 139 285 L 136 289 L 134 299 L 138 300 L 138 297 L 141 296 L 139 293 Q 138 289 142 288 L 145 289 L 146 289 Q 144 285 139 285 Z M 136 349 L 132 358 L 125 363 L 105 363 L 102 371 L 93 385 L 93 391 L 90 400 L 91 403 L 110 403 L 112 403 L 124 403 L 125 404 L 134 404 L 135 403 Q 139 402 141 404 L 157 403 Q 156 396 159 393 L 159 387 L 161 385 Q 160 379 162 378 L 162 372 L 160 365 L 144 361 Q 139 358 138 353 Q 139 348 136 349 Z M 69 354 L 67 356 L 67 360 L 63 374 L 61 375 L 62 381 L 73 384 L 88 384 Q 92 373 99 365 L 99 362 L 74 357 L 69 354 Z M 195 363 L 182 366 L 166 365 L 168 374 L 168 382 L 167 383 Q 166 386 169 387 L 185 387 L 194 384 L 200 367 Q 202 360 195 363 Z M 57 385 L 56 392 Q 57 394 55 393 Q 50 394 51 400 L 57 403 L 66 403 L 67 402 Q 73 405 84 403 L 87 399 L 86 397 L 87 389 L 84 390 Q 67 391 57 385 Z M 189 390 L 183 392 L 179 391 L 177 392 L 166 391 L 164 393 L 162 403 L 169 404 L 194 404 L 196 402 Q 197 396 193 395 Q 195 388 189 390 Z " /><path fill="rgb(24,24,26)" stroke="rgb(24,24,26)" stroke-width="1" opacity="0.9215686274509803" d="M 212.5 80 L 235 80.5 L 224.5 83 L 191.5 85 L 167.5 91 L 139.5 104 L 125.5 114 L 125 112.5 L 129 107 Q 147.3 93.2 172.5 85 L 176.5 85 L 185.5 82 L 211.5 81 L 212.5 80 Z " /><path fill="rgb(24,24,26)" stroke="rgb(24,24,26)" stroke-width="1" opacity="0.9215686274509803" d="M 258.5 159 L 260 159.5 L 238.5 183 L 223 197.5 Q 223.8 200.1 220.5 199 L 219 199.5 Q 226.9 186.4 238.5 177 L 254 164 Q 252.9 161.3 255.5 162 L 258.5 159 Z " /><path fill="rgb(24,24,26)" stroke="rgb(24,24,26)" stroke-width="1" opacity="0.9215686274509803" d="M 136 189 L 139.5 189 L 151.5 195 L 158.5 191 Q 161 192 160 196.5 Q 157 201 149.5 201 Q 141.1 197.4 136 190.5 L 136 189 Z " /><path fill="rgb(24,24,26)" stroke="rgb(24,24,26)" stroke-width="1" opacity="0.9215686274509803" d="M 165.5 192 Q 167.8 191.3 167 193.5 L 168 196.5 Q 166.7 200.8 162 200 L 162 197.5 L 165.5 192 Z " /><path fill="rgb(24,24,26)" stroke="rgb(24,24,26)" stroke-width="1" opacity="0.9215686274509803" d="M 68.5 193 Q 74.6 192.2 77 194 L 76 198.5 L 78 200.5 L 74.5 204 Q 68.3 205.3 67 201.5 Q 68.5 198 74 198.5 L 67 198 Q 66 194.2 68.5 193 Z " /><path fill="rgb(24,24,26)" stroke="rgb(24,24,26)" stroke-width="1" opacity="0.9215686274509803" d="M 355 199 Q 358.3 197.7 357 202.5 Q 359.8 204.3 358 210.5 L 354 230.5 L 345 251.5 L 321.5 280 Q 319.3 279.3 320 281.5 L 317 283 L 318 279.5 L 336 257.5 L 343 245.5 L 350 229.5 L 350 225.5 L 353 217.5 L 355 199 Z " /><path fill="rgb(24,24,26)" stroke="rgb(24,24,26)" stroke-width="1" opacity="0.9215686274509803" d="M 137.5 209 Q 142.3 208.3 143 211.5 L 142 216.5 L 139.5 219 L 136 217.5 Q 134.3 210.8 137.5 209 Z " /><path fill="rgb(24,24,26)" stroke="rgb(24,24,26)" stroke-width="1" opacity="0.9215686274509803" d="M 180.5 218 L 184 220.5 Q 184.6 225.6 181.5 227 L 178 226 L 178 219.5 L 179.5 219 L 180.5 218 Z " /><path fill="rgb(24,24,26)" stroke="rgb(24,24,26)" stroke-width="1" opacity="0.9215686274509803" d="M 161.5 263 L 167 266.5 Q 169.2 272.8 163.5 271 L 159 267.5 L 161.5 263 Z " /><path fill="rgb(24,24,26)" stroke="rgb(24,24,26)" stroke-width="1" opacity="0.9215686274509803" d="M 33.5 329 Q 36.1 328.2 35 331.5 L 32 337.5 L 30 348 L 27 346.5 L 28 335.5 L 30 331 L 33.5 329 Z " /><path fill="rgb(24,24,26)" stroke="rgb(24,24,26)" stroke-width="1" opacity="0.9215686274509803" d="M 21.5 340 Q 23.8 339.3 23 341.5 L 24 345.5 L 24 347.5 L 24 354 L 21.5 354 Q 16.7 351.8 18 343.5 L 21.5 340 Z " /><path fill="rgb(24,24,26)" stroke="rgb(24,24,26)" stroke-width="1" opacity="0.9215686274509803" d="M 363.5 374 L 365 377.5 L 362.5 380 Q 356.4 379.4 353.5 382 Q 350.5 380.5 353.5 379 L 363.5 374 Z " /><path fill="rgb(24,24,26)" stroke="rgb(24,24,26)" stroke-width="1" opacity="0.9215686274509803" d="M 376.5 384 Q 380.3 382.8 379 386.5 Q 376.6 392.1 369 391 L 370.5 388 L 376.5 384 Z " /><path fill="rgb(24,24,26)" stroke="rgb(24,24,26)" stroke-width="1" opacity="0.9215686274509803" d="M 64.5 390 Q 71.4 389.1 74 392.5 Q 72.5 397.5 64.5 396 L 62 395 Q 61.3 391.2 64.5 390 Z " /></svg>