<?xml version="1.0" standalone="no"?><!DOCTYPE svg PUBLIC "-//W3C//DTD SVG 1.1//EN" "http://www.w3.org/Graphics/SVG/1.1/DTD/svg11.dtd"><svg t="1780971901817" class="icon" viewBox="0 0 1024 1024" version="1.1" xmlns="http://www.w3.org/2000/svg" p-id="2777" xmlns:xlink="http://www.w3.org/1999/xlink" width="200" height="200"><path d="M832.45 891.2h-638.9A90.65 90.65 0 0 1 103 800.64V279.75a90.65 90.65 0 0 1 90.55-90.55h638.9A90.65 90.65 0 0 1 923 279.75v520.89a90.65 90.65 0 0 1-90.55 90.56z m-638.9-650A38.59 38.59 0 0 0 155 279.75v520.89a38.6 38.6 0 0 0 38.55 38.56h638.9A38.6 38.6 0 0 0 871 800.64V279.75a38.59 38.59 0 0 0-38.55-38.55z" p-id="2778" fill="#515151"></path><path d="M323.94 115.2m26 0l0 0q26 0 26 26l0 128q0 26-26 26l0 0q-26 0-26-26l0-128q0-26 26-26Z" p-id="2779" fill="#515151"></path><path d="M650.06 115.2m26 0l0 0q26 0 26 26l0 128q0 26-26 26l0 0q-26 0-26-26l0-128q0-26 26-26Z" p-id="2780" fill="#515151"></path><path d="M553 532.15m26 0l148 0q26 0 26 26l0 0q0 26-26 26l-148 0q-26 0-26-26l0 0q0-26 26-26Z" p-id="2781" fill="#515151"></path><path d="M273 688.15m26 0l428 0q26 0 26 26l0 0q0 26-26 26l-428 0q-26 0-26-26l0 0q0-26 26-26Z" p-id="2782" fill="#515151"></path><path d="M524.06 381.94a50.76 50.76 0 0 1 76.33 66.94 47.88 47.88 0 0 1-6 5.77l-34.74 34.74-71.75-71.83 35.92-35.91zM380.21 668.81v0.05h-71.78v-71.83h0.05L470 435.52l71.77 71.83-161.56 161.46z" p-id="2783" fill="#515151"></path></svg>