<?xml version="1.0" standalone="no"?><!DOCTYPE svg PUBLIC "-//W3C//DTD SVG 1.1//EN" "http://www.w3.org/Graphics/SVG/1.1/DTD/svg11.dtd"><svg t="1780708078360" class="icon" viewBox="0 0 1365 1024" version="1.1" xmlns="http://www.w3.org/2000/svg" p-id="2922" xmlns:xlink="http://www.w3.org/1999/xlink" width="266.6015625" height="200"><path d="M1164.174801 18.20113a62.059534 62.059534 0 0 1 0 87.752182L286.528869 983.599243a62.059534 62.059534 0 1 1-87.783211-87.752181L1076.422619 18.20113a62.059534 62.059534 0 0 1 87.783211 0z m-5.306091 224.717574c3.599453 2.947828 7.198906 5.895656 10.798359 8.905543 108.355947 90.700009 193.253389 205.10676 193.25339 260.060477 0 54.922688-85.021562 169.360469-193.470598 260.091508-141.433678 118.347532-308.963391 190.52277-487.974117 190.52277-72.082149 0-142.302512-11.418954-209.637106-32.581256l75.86778-75.83675c43.658882 10.022615 88.372777 15.297675 133.738296 15.297675 154.993686 0 302.38508-63.486903 428.272845-168.801933 88.558955-74.068054 160.113598-170.384451 160.113598-188.660984 0-18.338592-71.461554-114.654989-159.927419-188.723043-5.709477-4.778584-11.481014-9.464079-17.25255-14.056485l66.217522-66.217522zM681.475744 61.301477c65.876195 0 130.169873 9.774377 192.198377 27.98885L796.844418 166.12003a578.705156 578.705156 0 0 0-115.368674-11.729252c-156.017669 0-303.967598 62.183653-428.707262 165.17145C162.658039 393.97161 93.089301 488.829607 93.089301 511.884724c0 23.055117 69.661827 117.913115 159.86536 192.353526l3.165036 2.606501-66.093404 66.093404C81.701377 682.672562 0 570.655103 0 511.915754c0-59.422004 83.501103-173.301249 193.501627-264.125377 140.316607-115.83412 308.373825-186.45787 487.974117-186.45787z m229.868515 429.141678a230.861467 230.861467 0 0 1-251.341114 251.341114l251.341114-251.341114z m-229.403068-209.450927l-231.357943 231.388973v-0.496477a230.861467 230.861467 0 0 1 230.861466-230.861467h0.496477z" fill="#2c2c2c" p-id="2923"></path></svg>