<?xml version="1.0" standalone="no"?><!DOCTYPE svg PUBLIC "-//W3C//DTD SVG 1.1//EN" "http://www.w3.org/Graphics/SVG/1.1/DTD/svg11.dtd"><svg t="1781748476118" class="icon" viewBox="0 0 1024 1024" version="1.1" xmlns="http://www.w3.org/2000/svg" p-id="8372" xmlns:xlink="http://www.w3.org/1999/xlink" width="200" height="200"><path d="M416.128 960V896h191.914667v64H416.128zM863.957333 416.170667c0 53.333333-11.136 103.466667-33.493333 150.442666a346.368 346.368 0 0 1-94.464 120.490667 189.226667 189.226667 0 0 0-46.506667 56.490667 146.346667 146.346667 0 0 0-17.493333 70.442666v18.048H352.170667v-14.037333c0-24.661333-4.821333-47.957333-14.506667-69.973333a140.714667 140.714667 0 0 0-42.453333-55.04c-52.650667-41.941333-90.282667-93.44-112.938667-154.453334-22.656-60.928-27.989333-124.416-16-190.421333 13.994667-69.290667 45.141333-128.768 93.44-178.432 48.341333-49.664 107.178667-82.133333 176.469333-97.493333a352 352 0 0 1 155.946667 1.024c51.328 11.946667 97.962667 34.986667 139.946667 68.949333a355.114667 355.114667 0 0 1 97.493333 122.026667 343.168 343.168 0 0 1 34.474667 151.893333z m-543.786666 32c0.64-67.328 18.133333-121.173333 52.48-161.493334 34.346667-40.32 80.810667-61.141333 139.434666-62.464v-64c-77.952 2.005333-139.776 29.525333-185.429333 82.474667-45.653333 52.992-69.12 121.472-70.485333 205.44h64z" fill="#2c2c2c" fill-opacity=".65" p-id="8373"></path></svg>