<?xml version="1.0" standalone="no"?><!DOCTYPE svg PUBLIC "-//W3C//DTD SVG 1.1//EN" "http://www.w3.org/Graphics/SVG/1.1/DTD/svg11.dtd"><svg t="1781748367684" class="icon" viewBox="0 0 1024 1024" version="1.1" xmlns="http://www.w3.org/2000/svg" p-id="4535" xmlns:xlink="http://www.w3.org/1999/xlink" width="200" height="200"><path d="M671.288889 803.271111H357.262222c-18.204444 0-31.857778 13.653333-31.857778 29.582222 0 18.204444 13.653333 29.582222 31.857778 29.582223h314.026667c18.204444 0 31.857778-13.653333 31.857778-29.582223-2.275556-18.204444-13.653333-29.582222-31.857778-29.582222zM482.417778 976.213333c18.204444 6.826667 38.684444 6.826667 56.888889 0l116.053333-54.613333H370.915556l111.502222 54.613333zM775.964444 134.257778C703.146667 63.715556 614.4 29.582222 512 29.582222c-104.675556 0-191.146667 34.133333-263.964444 104.675556C172.942222 204.8 136.533333 286.72 136.533333 384.568889c0 13.653333 0 27.306667 2.275556 40.96 0 2.275556 2.275556 6.826667 2.275555 9.102222 2.275556 13.653333 2.275556 22.755556 6.826667 34.133333v4.551112c4.551111 13.653333 6.826667 22.755556 11.377778 34.133333v2.275555c0 2.275556 0 2.275556 2.275555 2.275556 4.551111 13.653333 11.377778 25.031111 15.928889 36.408889 0 2.275556 0 2.275556 2.275556 2.275555 13.653333 25.031111 29.582222 45.511111 47.786667 68.266667l27.306666 25.031111c4.551111 4.551111 6.826667 4.551111 6.826667 4.551111l6.826667 6.826667 6.826666 4.551111 18.204445 13.653333 2.275555 2.275556c2.275556 2.275556 2.275556 2.275556 4.551111 2.275556 11.377778 9.102222 18.204444 18.204444 25.031111 29.582222 6.826667 11.377778 11.377778 18.204444 15.928889 25.031111 4.551111 4.551111 15.928889 6.826667 29.582223 6.826667h282.168888c13.653333 0 25.031111-2.275556 29.582223-6.826667 4.551111-4.551111 11.377778-13.653333 15.928889-25.031111 4.551111-11.377778 13.653333-20.48 25.031111-29.582222l2.275555-2.275556 4.551111-2.275556 18.204445-13.653333c0-2.275556 4.551111-4.551111 6.826666-4.551111l11.377778-11.377778 2.275556-2.275555c11.377778-9.102222 20.48-18.204444 27.306666-25.031111 9.102222-11.377778 18.204444-22.755556 25.031112-34.133334 6.826667-11.377778 15.928889-22.755556 20.48-36.408889 2.275556 0 2.275556 0 2.275555-2.275555 4.551111-9.102222 11.377778-22.755556 15.928889-36.408889l2.275556-2.275556v-2.275555c4.551111-9.102222 6.826667-20.48 11.377777-34.133334 0-2.275556 0-4.551111 2.275556-4.551111l6.826667-34.133333c0-2.275556 0-6.826667 2.275555-9.102222 2.275556-13.653333 2.275556-27.306667 2.275556-40.96 0-93.297778-36.408889-175.217778-111.502223-245.76z m6.826667 207.075555c-4.551111 2.275556-6.826667 2.275556-11.377778 2.275556-11.377778 0-20.48-6.826667-25.031111-15.928889-11.377778-27.306667-29.582222-52.337778-54.613333-75.093333-27.306667-27.306667-59.164444-45.511111-93.297778-56.888889-13.653333-4.551111-22.755556-20.48-18.204444-36.408889 4.551111-13.653333 20.48-22.755556 36.408889-18.204445 40.96 13.653333 79.644444 36.408889 113.777777 68.266667 29.582222 27.306667 52.337778 59.164444 65.991111 91.022222 6.826667 18.204444 0 34.133333-13.653333 40.96z" fill="#515151" p-id="4536"></path></svg>