<svg height="32" viewBox="0 0 32 32" width="32" xmlns="http://www.w3.org/2000/svg" fill="none" stroke="currentColor" stroke-width="1.5" stroke-linecap="round" stroke-linejoin="round">
  <path d="M16 1.5c-6.5 0-10.5 5-10.5 13l-.9 2.1c-1.5 4.5-1.5 7.5 1.5 8.5 1 .2 1.5 0 2-.5l.1-.1.2.4c1 .8 1.5 2 .5 3.5-.7 1-1.5 1.5-4.5 1.5h1.5c1.5 0 3-.1 4-.2 1 0 2.5-.1 4-.2h1.5c3 0 4-.5 4.5-1.5.8-1.5 0-2.5-1-3.5l-.1-.1.1-.2c.5-.5 1-.7 2-.5 3-1 3-4 1.5-8.5l-.9-2.1c0-8-4-13-10.5-13z"/>
  <path d="M16 3.5c6 0 9 5.5 9 12l.9 2.1c.5 1.5 1 2.5 1.5 4 1 4 .5 5.5.5 5.5-.5.1-2.5-3-2.5-3 0 2-1 4-3 5.5l.3.1c1 .5 2.5 1 2 2-.5.5-7 0-9-.2-2 .2-8 .5-8.5-.5-.5-1 1.5-1.5 2.5-2-2-1.5-3-4-3-6 0 0-1.5 2.5-2.5 2.5-.3 0-.7-1.5.5-5.5.5-1.5 1-2.5 2-5-.2-6.5 2.5-12 8.5-12z"/>
</svg>